<mxfile host="app.diagrams.net" modified="2023-11-25T22:43:04.621Z" agent="Mozilla/5.0 (Windows NT 10.0; Win64; x64) AppleWebKit/537.36 (KHTML, like Gecko) Chrome/119.0.0.0 Safari/537.36" etag="XkPja1CMpCQKh8sxvNxS" version="22.1.3" type="device">
  <diagram name="Page-1" id="EoSORw-pdyOPgsJthCFU">
    <mxGraphModel dx="1673" dy="879" grid="1" gridSize="10" guides="1" tooltips="1" connect="1" arrows="1" fold="1" page="1" pageScale="1" pageWidth="850" pageHeight="1100" math="0" shadow="0">
      <root>
        <mxCell id="0" />
        <mxCell id="1" parent="0" />
        <mxCell id="-CvL78i2ro01cgqQbluY-94" style="edgeStyle=orthogonalEdgeStyle;rounded=0;orthogonalLoop=1;jettySize=auto;html=1;exitX=0;exitY=1;exitDx=0;exitDy=0;entryX=0;entryY=0;entryDx=0;entryDy=0;" parent="1" source="-CvL78i2ro01cgqQbluY-14" target="-CvL78i2ro01cgqQbluY-17" edge="1">
          <mxGeometry relative="1" as="geometry">
            <mxPoint x="298" y="469.93" as="sourcePoint" />
            <mxPoint x="298" y="515.93" as="targetPoint" />
          </mxGeometry>
        </mxCell>
        <mxCell id="-CvL78i2ro01cgqQbluY-95" value="λ&lt;sub&gt;2&lt;/sub&gt;" style="edgeLabel;html=1;align=center;verticalAlign=middle;resizable=0;points=[];" parent="-CvL78i2ro01cgqQbluY-94" vertex="1" connectable="0">
          <mxGeometry x="-0.045" relative="1" as="geometry">
            <mxPoint as="offset" />
          </mxGeometry>
        </mxCell>
        <mxCell id="CXwU6oOGhNFT2xrUzm34-13" style="rounded=0;orthogonalLoop=1;jettySize=auto;html=1;exitX=1;exitY=0;exitDx=0;exitDy=0;entryX=1;entryY=0;entryDx=0;entryDy=0;strokeWidth=1;endArrow=classic;endFill=1;edgeStyle=isometricEdgeStyle;" parent="1" source="-CvL78i2ro01cgqQbluY-11" target="-CvL78i2ro01cgqQbluY-35" edge="1">
          <mxGeometry relative="1" as="geometry">
            <mxPoint x="348.83" y="410.71" as="sourcePoint" />
            <mxPoint x="531.83" y="470.71" as="targetPoint" />
            <Array as="points">
              <mxPoint x="590.83" y="407.71" />
            </Array>
          </mxGeometry>
        </mxCell>
        <mxCell id="CXwU6oOGhNFT2xrUzm34-14" value="μ&lt;sub style=&quot;border-color: var(--border-color);&quot;&gt;3&lt;/sub&gt;" style="edgeLabel;html=1;align=center;verticalAlign=middle;resizable=0;points=[];" parent="CXwU6oOGhNFT2xrUzm34-13" vertex="1" connectable="0">
          <mxGeometry x="-0.045" relative="1" as="geometry">
            <mxPoint x="28" y="14" as="offset" />
          </mxGeometry>
        </mxCell>
        <mxCell id="CXwU6oOGhNFT2xrUzm34-7" style="edgeStyle=orthogonalEdgeStyle;rounded=0;orthogonalLoop=1;jettySize=auto;html=1;exitX=1;exitY=0;exitDx=0;exitDy=0;entryX=1;entryY=0;entryDx=0;entryDy=0;strokeWidth=1;endArrow=none;endFill=0;startArrow=classic;startFill=1;" parent="1" source="-CvL78i2ro01cgqQbluY-3" target="-CvL78i2ro01cgqQbluY-38" edge="1">
          <mxGeometry relative="1" as="geometry">
            <mxPoint x="350.32" y="330.07" as="sourcePoint" />
            <mxPoint x="406.32" y="330.07" as="targetPoint" />
          </mxGeometry>
        </mxCell>
        <mxCell id="CXwU6oOGhNFT2xrUzm34-8" value="λ&lt;sub&gt;3&lt;/sub&gt;" style="edgeLabel;html=1;align=center;verticalAlign=middle;resizable=0;points=[];" parent="CXwU6oOGhNFT2xrUzm34-7" vertex="1" connectable="0">
          <mxGeometry x="-0.045" relative="1" as="geometry">
            <mxPoint x="88" y="27" as="offset" />
          </mxGeometry>
        </mxCell>
        <mxCell id="CXwU6oOGhNFT2xrUzm34-9" style="edgeStyle=orthogonalEdgeStyle;rounded=0;orthogonalLoop=1;jettySize=auto;html=1;exitX=1;exitY=1;exitDx=0;exitDy=0;entryX=0;entryY=0;entryDx=0;entryDy=0;" parent="1" source="-CvL78i2ro01cgqQbluY-3" target="-CvL78i2ro01cgqQbluY-38" edge="1">
          <mxGeometry relative="1" as="geometry">
            <mxPoint x="373.32" y="357" as="sourcePoint" />
            <mxPoint x="373.32" y="403" as="targetPoint" />
          </mxGeometry>
        </mxCell>
        <mxCell id="CXwU6oOGhNFT2xrUzm34-10" value="μ&lt;sub&gt;3&lt;/sub&gt;" style="edgeLabel;html=1;align=center;verticalAlign=middle;resizable=0;points=[];" parent="CXwU6oOGhNFT2xrUzm34-9" vertex="1" connectable="0">
          <mxGeometry x="-0.0296" relative="1" as="geometry">
            <mxPoint x="72" y="12" as="offset" />
          </mxGeometry>
        </mxCell>
        <mxCell id="-CvL78i2ro01cgqQbluY-120" style="edgeStyle=orthogonalEdgeStyle;rounded=0;orthogonalLoop=1;jettySize=auto;html=1;exitX=1;exitY=1;exitDx=0;exitDy=0;entryX=1;entryY=0;entryDx=0;entryDy=0;" parent="1" edge="1">
          <mxGeometry relative="1" as="geometry">
            <mxPoint x="516" y="583" as="sourcePoint" />
            <mxPoint x="516" y="537" as="targetPoint" />
          </mxGeometry>
        </mxCell>
        <mxCell id="-CvL78i2ro01cgqQbluY-121" value="2μ&lt;sub&gt;2&lt;/sub&gt;" style="edgeLabel;html=1;align=center;verticalAlign=middle;resizable=0;points=[];" parent="-CvL78i2ro01cgqQbluY-120" vertex="1" connectable="0">
          <mxGeometry x="-0.0296" relative="1" as="geometry">
            <mxPoint as="offset" />
          </mxGeometry>
        </mxCell>
        <mxCell id="-CvL78i2ro01cgqQbluY-122" style="edgeStyle=orthogonalEdgeStyle;rounded=0;orthogonalLoop=1;jettySize=auto;html=1;exitX=0;exitY=0;exitDx=0;exitDy=0;entryX=0;entryY=1;entryDx=0;entryDy=0;" parent="1" edge="1">
          <mxGeometry relative="1" as="geometry">
            <mxPoint x="480" y="537" as="sourcePoint" />
            <mxPoint x="480" y="583" as="targetPoint" />
          </mxGeometry>
        </mxCell>
        <mxCell id="-CvL78i2ro01cgqQbluY-123" value="λ&lt;sub&gt;2&lt;/sub&gt;" style="edgeLabel;html=1;align=center;verticalAlign=middle;resizable=0;points=[];" parent="-CvL78i2ro01cgqQbluY-122" vertex="1" connectable="0">
          <mxGeometry x="-0.045" relative="1" as="geometry">
            <mxPoint as="offset" />
          </mxGeometry>
        </mxCell>
        <mxCell id="-CvL78i2ro01cgqQbluY-100" style="edgeStyle=orthogonalEdgeStyle;rounded=0;orthogonalLoop=1;jettySize=auto;html=1;exitX=1;exitY=1;exitDx=0;exitDy=0;entryX=1;entryY=0;entryDx=0;entryDy=0;" parent="1" edge="1">
          <mxGeometry relative="1" as="geometry">
            <mxPoint x="425.71" y="523" as="sourcePoint" />
            <mxPoint x="425.71" y="477" as="targetPoint" />
          </mxGeometry>
        </mxCell>
        <mxCell id="-CvL78i2ro01cgqQbluY-101" value="μ&lt;sub&gt;2&lt;/sub&gt;" style="edgeLabel;html=1;align=center;verticalAlign=middle;resizable=0;points=[];" parent="-CvL78i2ro01cgqQbluY-100" vertex="1" connectable="0">
          <mxGeometry x="-0.0296" relative="1" as="geometry">
            <mxPoint as="offset" />
          </mxGeometry>
        </mxCell>
        <mxCell id="-CvL78i2ro01cgqQbluY-102" style="edgeStyle=orthogonalEdgeStyle;rounded=0;orthogonalLoop=1;jettySize=auto;html=1;exitX=0;exitY=0;exitDx=0;exitDy=0;entryX=0;entryY=1;entryDx=0;entryDy=0;" parent="1" edge="1">
          <mxGeometry relative="1" as="geometry">
            <mxPoint x="389.71" y="477" as="sourcePoint" />
            <mxPoint x="389.71" y="523" as="targetPoint" />
          </mxGeometry>
        </mxCell>
        <mxCell id="-CvL78i2ro01cgqQbluY-103" value="λ&lt;sub&gt;2&lt;/sub&gt;" style="edgeLabel;html=1;align=center;verticalAlign=middle;resizable=0;points=[];" parent="-CvL78i2ro01cgqQbluY-102" vertex="1" connectable="0">
          <mxGeometry x="-0.045" relative="1" as="geometry">
            <mxPoint as="offset" />
          </mxGeometry>
        </mxCell>
        <mxCell id="-CvL78i2ro01cgqQbluY-104" style="edgeStyle=orthogonalEdgeStyle;rounded=0;orthogonalLoop=1;jettySize=auto;html=1;exitX=1;exitY=1;exitDx=0;exitDy=0;entryX=1;entryY=0;entryDx=0;entryDy=0;" parent="1" edge="1">
          <mxGeometry relative="1" as="geometry">
            <mxPoint x="516" y="523" as="sourcePoint" />
            <mxPoint x="516" y="477" as="targetPoint" />
          </mxGeometry>
        </mxCell>
        <mxCell id="-CvL78i2ro01cgqQbluY-105" value="μ&lt;sub&gt;2&lt;/sub&gt;" style="edgeLabel;html=1;align=center;verticalAlign=middle;resizable=0;points=[];" parent="-CvL78i2ro01cgqQbluY-104" vertex="1" connectable="0">
          <mxGeometry x="-0.0296" relative="1" as="geometry">
            <mxPoint as="offset" />
          </mxGeometry>
        </mxCell>
        <mxCell id="-CvL78i2ro01cgqQbluY-106" style="edgeStyle=orthogonalEdgeStyle;rounded=0;orthogonalLoop=1;jettySize=auto;html=1;exitX=0;exitY=0;exitDx=0;exitDy=0;entryX=0;entryY=1;entryDx=0;entryDy=0;" parent="1" edge="1">
          <mxGeometry relative="1" as="geometry">
            <mxPoint x="480" y="477" as="sourcePoint" />
            <mxPoint x="480" y="523" as="targetPoint" />
          </mxGeometry>
        </mxCell>
        <mxCell id="-CvL78i2ro01cgqQbluY-107" value="λ&lt;sub&gt;2&lt;/sub&gt;" style="edgeLabel;html=1;align=center;verticalAlign=middle;resizable=0;points=[];" parent="-CvL78i2ro01cgqQbluY-106" vertex="1" connectable="0">
          <mxGeometry x="-0.045" relative="1" as="geometry">
            <mxPoint as="offset" />
          </mxGeometry>
        </mxCell>
        <mxCell id="-CvL78i2ro01cgqQbluY-75" style="edgeStyle=orthogonalEdgeStyle;rounded=0;orthogonalLoop=1;jettySize=auto;html=1;exitX=1;exitY=1;exitDx=0;exitDy=0;entryX=1;entryY=0;entryDx=0;entryDy=0;" parent="1" source="-CvL78i2ro01cgqQbluY-29" target="-CvL78i2ro01cgqQbluY-26" edge="1">
          <mxGeometry relative="1" as="geometry" />
        </mxCell>
        <mxCell id="-CvL78i2ro01cgqQbluY-80" value="μ&lt;sub&gt;4&lt;/sub&gt;" style="edgeLabel;html=1;align=center;verticalAlign=middle;resizable=0;points=[];" parent="-CvL78i2ro01cgqQbluY-75" vertex="1" connectable="0">
          <mxGeometry x="-0.0296" relative="1" as="geometry">
            <mxPoint as="offset" />
          </mxGeometry>
        </mxCell>
        <mxCell id="-CvL78i2ro01cgqQbluY-77" style="edgeStyle=orthogonalEdgeStyle;rounded=0;orthogonalLoop=1;jettySize=auto;html=1;exitX=0;exitY=0;exitDx=0;exitDy=0;entryX=0;entryY=1;entryDx=0;entryDy=0;" parent="1" source="-CvL78i2ro01cgqQbluY-26" target="-CvL78i2ro01cgqQbluY-29" edge="1">
          <mxGeometry relative="1" as="geometry" />
        </mxCell>
        <mxCell id="-CvL78i2ro01cgqQbluY-78" value="λ&lt;sub&gt;4&lt;/sub&gt;" style="edgeLabel;html=1;align=center;verticalAlign=middle;resizable=0;points=[];" parent="-CvL78i2ro01cgqQbluY-77" vertex="1" connectable="0">
          <mxGeometry x="-0.045" relative="1" as="geometry">
            <mxPoint as="offset" />
          </mxGeometry>
        </mxCell>
        <mxCell id="-CvL78i2ro01cgqQbluY-81" style="edgeStyle=orthogonalEdgeStyle;rounded=0;orthogonalLoop=1;jettySize=auto;html=1;exitX=0;exitY=0;exitDx=0;exitDy=0;entryX=0;entryY=1;entryDx=0;entryDy=0;" parent="1" source="-CvL78i2ro01cgqQbluY-14" target="-CvL78i2ro01cgqQbluY-11" edge="1">
          <mxGeometry relative="1" as="geometry">
            <mxPoint x="299.68" y="463" as="sourcePoint" />
            <mxPoint x="299.68" y="417" as="targetPoint" />
          </mxGeometry>
        </mxCell>
        <mxCell id="-CvL78i2ro01cgqQbluY-82" value="λ&lt;sub&gt;1&lt;/sub&gt;" style="edgeLabel;html=1;align=center;verticalAlign=middle;resizable=0;points=[];" parent="-CvL78i2ro01cgqQbluY-81" vertex="1" connectable="0">
          <mxGeometry x="-0.045" relative="1" as="geometry">
            <mxPoint as="offset" />
          </mxGeometry>
        </mxCell>
        <mxCell id="-CvL78i2ro01cgqQbluY-83" style="edgeStyle=orthogonalEdgeStyle;rounded=0;orthogonalLoop=1;jettySize=auto;html=1;exitX=1;exitY=1;exitDx=0;exitDy=0;entryX=1;entryY=0;entryDx=0;entryDy=0;" parent="1" source="-CvL78i2ro01cgqQbluY-11" target="-CvL78i2ro01cgqQbluY-14" edge="1">
          <mxGeometry relative="1" as="geometry">
            <mxPoint x="350.32" y="417" as="sourcePoint" />
            <mxPoint x="350.32" y="463" as="targetPoint" />
          </mxGeometry>
        </mxCell>
        <mxCell id="-CvL78i2ro01cgqQbluY-84" value="μ&lt;sub&gt;1&lt;/sub&gt;" style="edgeLabel;html=1;align=center;verticalAlign=middle;resizable=0;points=[];" parent="-CvL78i2ro01cgqQbluY-83" vertex="1" connectable="0">
          <mxGeometry x="-0.0296" relative="1" as="geometry">
            <mxPoint as="offset" />
          </mxGeometry>
        </mxCell>
        <mxCell id="-CvL78i2ro01cgqQbluY-85" style="edgeStyle=orthogonalEdgeStyle;rounded=0;orthogonalLoop=1;jettySize=auto;html=1;exitX=1;exitY=1;exitDx=0;exitDy=0;entryX=1;entryY=0;entryDx=0;entryDy=0;" parent="1" source="-CvL78i2ro01cgqQbluY-3" target="-CvL78i2ro01cgqQbluY-11" edge="1">
          <mxGeometry relative="1" as="geometry">
            <mxPoint x="350.32" y="357" as="sourcePoint" />
            <mxPoint x="334" y="403" as="targetPoint" />
          </mxGeometry>
        </mxCell>
        <mxCell id="-CvL78i2ro01cgqQbluY-86" value="2μ&lt;sub&gt;1&lt;/sub&gt;" style="edgeLabel;html=1;align=center;verticalAlign=middle;resizable=0;points=[];" parent="-CvL78i2ro01cgqQbluY-85" vertex="1" connectable="0">
          <mxGeometry x="-0.0296" relative="1" as="geometry">
            <mxPoint y="-9" as="offset" />
          </mxGeometry>
        </mxCell>
        <mxCell id="-CvL78i2ro01cgqQbluY-90" style="edgeStyle=orthogonalEdgeStyle;rounded=0;orthogonalLoop=1;jettySize=auto;html=1;exitX=0;exitY=0;exitDx=0;exitDy=0;entryX=0;entryY=1;entryDx=0;entryDy=0;" parent="1" source="-CvL78i2ro01cgqQbluY-11" target="-CvL78i2ro01cgqQbluY-3" edge="1">
          <mxGeometry relative="1" as="geometry">
            <mxPoint x="298" y="405.93" as="sourcePoint" />
            <mxPoint x="298" y="359.93" as="targetPoint" />
          </mxGeometry>
        </mxCell>
        <mxCell id="-CvL78i2ro01cgqQbluY-91" value="λ&lt;sub&gt;1&lt;/sub&gt;" style="edgeLabel;html=1;align=center;verticalAlign=middle;resizable=0;points=[];" parent="-CvL78i2ro01cgqQbluY-90" vertex="1" connectable="0">
          <mxGeometry x="-0.045" relative="1" as="geometry">
            <mxPoint as="offset" />
          </mxGeometry>
        </mxCell>
        <mxCell id="-CvL78i2ro01cgqQbluY-96" style="edgeStyle=orthogonalEdgeStyle;rounded=0;orthogonalLoop=1;jettySize=auto;html=1;exitX=1;exitY=1;exitDx=0;exitDy=0;entryX=1;entryY=0;entryDx=0;entryDy=0;" parent="1" edge="1">
          <mxGeometry relative="1" as="geometry">
            <mxPoint x="515.6800000000001" y="417" as="sourcePoint" />
            <mxPoint x="515.6800000000001" y="463" as="targetPoint" />
          </mxGeometry>
        </mxCell>
        <mxCell id="-CvL78i2ro01cgqQbluY-97" value="μ&lt;sub&gt;4&lt;/sub&gt;" style="edgeLabel;html=1;align=center;verticalAlign=middle;resizable=0;points=[];" parent="-CvL78i2ro01cgqQbluY-96" vertex="1" connectable="0">
          <mxGeometry x="-0.0296" relative="1" as="geometry">
            <mxPoint y="-7" as="offset" />
          </mxGeometry>
        </mxCell>
        <mxCell id="-CvL78i2ro01cgqQbluY-98" style="edgeStyle=orthogonalEdgeStyle;rounded=0;orthogonalLoop=1;jettySize=auto;html=1;exitX=0;exitY=0;exitDx=0;exitDy=0;entryX=0;entryY=1;entryDx=0;entryDy=0;" parent="1" edge="1">
          <mxGeometry relative="1" as="geometry">
            <mxPoint x="479.68" y="463" as="sourcePoint" />
            <mxPoint x="479.68" y="417" as="targetPoint" />
          </mxGeometry>
        </mxCell>
        <mxCell id="-CvL78i2ro01cgqQbluY-99" value="λ&lt;sub&gt;4&lt;/sub&gt;" style="edgeLabel;html=1;align=center;verticalAlign=middle;resizable=0;points=[];" parent="-CvL78i2ro01cgqQbluY-98" vertex="1" connectable="0">
          <mxGeometry x="-0.045" relative="1" as="geometry">
            <mxPoint as="offset" />
          </mxGeometry>
        </mxCell>
        <mxCell id="-CvL78i2ro01cgqQbluY-147" style="edgeStyle=orthogonalEdgeStyle;rounded=0;orthogonalLoop=1;jettySize=auto;html=1;exitX=1;exitY=0;exitDx=0;exitDy=0;entryX=0;entryY=0;entryDx=0;entryDy=0;strokeWidth=1;endArrow=classic;endFill=1;" parent="1" edge="1">
          <mxGeometry relative="1" as="geometry">
            <mxPoint x="425.35" y="403" as="sourcePoint" />
            <mxPoint x="481.35" y="403" as="targetPoint" />
          </mxGeometry>
        </mxCell>
        <mxCell id="-CvL78i2ro01cgqQbluY-148" value="λ&lt;sub&gt;1&lt;/sub&gt;" style="edgeLabel;html=1;align=center;verticalAlign=middle;resizable=0;points=[];" parent="-CvL78i2ro01cgqQbluY-147" vertex="1" connectable="0">
          <mxGeometry x="-0.045" relative="1" as="geometry">
            <mxPoint as="offset" />
          </mxGeometry>
        </mxCell>
        <mxCell id="-CvL78i2ro01cgqQbluY-149" style="edgeStyle=orthogonalEdgeStyle;rounded=0;orthogonalLoop=1;jettySize=auto;html=1;exitX=0;exitY=1;exitDx=0;exitDy=0;entryX=1;entryY=1;entryDx=0;entryDy=0;" parent="1" edge="1">
          <mxGeometry relative="1" as="geometry">
            <mxPoint x="481.35" y="417" as="sourcePoint" />
            <mxPoint x="425.35" y="417" as="targetPoint" />
          </mxGeometry>
        </mxCell>
        <mxCell id="-CvL78i2ro01cgqQbluY-150" value="μ&lt;sub&gt;1&lt;/sub&gt;" style="edgeLabel;html=1;align=center;verticalAlign=middle;resizable=0;points=[];" parent="-CvL78i2ro01cgqQbluY-149" vertex="1" connectable="0">
          <mxGeometry x="-0.0296" relative="1" as="geometry">
            <mxPoint as="offset" />
          </mxGeometry>
        </mxCell>
        <mxCell id="-CvL78i2ro01cgqQbluY-151" style="edgeStyle=orthogonalEdgeStyle;rounded=0;orthogonalLoop=1;jettySize=auto;html=1;exitX=1;exitY=0;exitDx=0;exitDy=0;entryX=0;entryY=0;entryDx=0;entryDy=0;strokeWidth=1;endArrow=classic;endFill=1;" parent="1" edge="1">
          <mxGeometry relative="1" as="geometry">
            <mxPoint x="425.35" y="463" as="sourcePoint" />
            <mxPoint x="481.35" y="463" as="targetPoint" />
          </mxGeometry>
        </mxCell>
        <mxCell id="-CvL78i2ro01cgqQbluY-152" value="λ&lt;sub&gt;1&lt;/sub&gt;" style="edgeLabel;html=1;align=center;verticalAlign=middle;resizable=0;points=[];" parent="-CvL78i2ro01cgqQbluY-151" vertex="1" connectable="0">
          <mxGeometry x="-0.045" relative="1" as="geometry">
            <mxPoint as="offset" />
          </mxGeometry>
        </mxCell>
        <mxCell id="-CvL78i2ro01cgqQbluY-153" style="edgeStyle=orthogonalEdgeStyle;rounded=0;orthogonalLoop=1;jettySize=auto;html=1;exitX=0;exitY=1;exitDx=0;exitDy=0;entryX=1;entryY=1;entryDx=0;entryDy=0;" parent="1" edge="1">
          <mxGeometry relative="1" as="geometry">
            <mxPoint x="481.35" y="477" as="sourcePoint" />
            <mxPoint x="425.35" y="477" as="targetPoint" />
          </mxGeometry>
        </mxCell>
        <mxCell id="-CvL78i2ro01cgqQbluY-154" value="μ&lt;sub&gt;1&lt;/sub&gt;" style="edgeLabel;html=1;align=center;verticalAlign=middle;resizable=0;points=[];" parent="-CvL78i2ro01cgqQbluY-153" vertex="1" connectable="0">
          <mxGeometry x="-0.0296" relative="1" as="geometry">
            <mxPoint as="offset" />
          </mxGeometry>
        </mxCell>
        <mxCell id="-CvL78i2ro01cgqQbluY-155" style="edgeStyle=orthogonalEdgeStyle;rounded=0;orthogonalLoop=1;jettySize=auto;html=1;exitX=1;exitY=0;exitDx=0;exitDy=0;entryX=0;entryY=0;entryDx=0;entryDy=0;strokeWidth=1;endArrow=classic;endFill=1;" parent="1" edge="1">
          <mxGeometry relative="1" as="geometry">
            <mxPoint x="390" y="463" as="sourcePoint" />
            <mxPoint x="334" y="463" as="targetPoint" />
          </mxGeometry>
        </mxCell>
        <mxCell id="-CvL78i2ro01cgqQbluY-156" value="λ&lt;sub&gt;3&lt;/sub&gt;" style="edgeLabel;html=1;align=center;verticalAlign=middle;resizable=0;points=[];" parent="-CvL78i2ro01cgqQbluY-155" vertex="1" connectable="0">
          <mxGeometry x="-0.045" relative="1" as="geometry">
            <mxPoint as="offset" />
          </mxGeometry>
        </mxCell>
        <mxCell id="-CvL78i2ro01cgqQbluY-157" style="edgeStyle=orthogonalEdgeStyle;rounded=0;orthogonalLoop=1;jettySize=auto;html=1;exitX=0;exitY=1;exitDx=0;exitDy=0;entryX=1;entryY=1;entryDx=0;entryDy=0;" parent="1" edge="1">
          <mxGeometry relative="1" as="geometry">
            <mxPoint x="334" y="477" as="sourcePoint" />
            <mxPoint x="390" y="477" as="targetPoint" />
          </mxGeometry>
        </mxCell>
        <mxCell id="-CvL78i2ro01cgqQbluY-158" value="μ&lt;sub&gt;3&lt;/sub&gt;" style="edgeLabel;html=1;align=center;verticalAlign=middle;resizable=0;points=[];" parent="-CvL78i2ro01cgqQbluY-157" vertex="1" connectable="0">
          <mxGeometry x="-0.0296" relative="1" as="geometry">
            <mxPoint as="offset" />
          </mxGeometry>
        </mxCell>
        <mxCell id="-CvL78i2ro01cgqQbluY-159" style="edgeStyle=orthogonalEdgeStyle;rounded=0;orthogonalLoop=1;jettySize=auto;html=1;exitX=1;exitY=0;exitDx=0;exitDy=0;entryX=0;entryY=0;entryDx=0;entryDy=0;strokeWidth=1;endArrow=classic;endFill=1;" parent="1" edge="1">
          <mxGeometry relative="1" as="geometry">
            <mxPoint x="517" y="463" as="sourcePoint" />
            <mxPoint x="573" y="463" as="targetPoint" />
          </mxGeometry>
        </mxCell>
        <mxCell id="-CvL78i2ro01cgqQbluY-160" value="λ&lt;sub&gt;1&lt;/sub&gt;" style="edgeLabel;html=1;align=center;verticalAlign=middle;resizable=0;points=[];" parent="-CvL78i2ro01cgqQbluY-159" vertex="1" connectable="0">
          <mxGeometry x="-0.045" relative="1" as="geometry">
            <mxPoint as="offset" />
          </mxGeometry>
        </mxCell>
        <mxCell id="-CvL78i2ro01cgqQbluY-161" style="edgeStyle=orthogonalEdgeStyle;rounded=0;orthogonalLoop=1;jettySize=auto;html=1;exitX=0;exitY=1;exitDx=0;exitDy=0;entryX=1;entryY=1;entryDx=0;entryDy=0;" parent="1" edge="1">
          <mxGeometry relative="1" as="geometry">
            <mxPoint x="573" y="477" as="sourcePoint" />
            <mxPoint x="517" y="477" as="targetPoint" />
          </mxGeometry>
        </mxCell>
        <mxCell id="-CvL78i2ro01cgqQbluY-162" value="2μ&lt;sub&gt;1&lt;/sub&gt;" style="edgeLabel;html=1;align=center;verticalAlign=middle;resizable=0;points=[];" parent="-CvL78i2ro01cgqQbluY-161" vertex="1" connectable="0">
          <mxGeometry x="-0.0296" relative="1" as="geometry">
            <mxPoint as="offset" />
          </mxGeometry>
        </mxCell>
        <mxCell id="-CvL78i2ro01cgqQbluY-163" style="edgeStyle=orthogonalEdgeStyle;rounded=0;orthogonalLoop=1;jettySize=auto;html=1;exitX=1;exitY=0;exitDx=0;exitDy=0;entryX=0;entryY=0;entryDx=0;entryDy=0;strokeWidth=1;endArrow=classic;endFill=1;" parent="1" edge="1">
          <mxGeometry relative="1" as="geometry">
            <mxPoint x="608" y="463" as="sourcePoint" />
            <mxPoint x="664" y="463" as="targetPoint" />
          </mxGeometry>
        </mxCell>
        <mxCell id="-CvL78i2ro01cgqQbluY-164" value="λ&lt;sub&gt;1&lt;/sub&gt;" style="edgeLabel;html=1;align=center;verticalAlign=middle;resizable=0;points=[];" parent="-CvL78i2ro01cgqQbluY-163" vertex="1" connectable="0">
          <mxGeometry x="-0.045" relative="1" as="geometry">
            <mxPoint as="offset" />
          </mxGeometry>
        </mxCell>
        <mxCell id="-CvL78i2ro01cgqQbluY-165" style="edgeStyle=orthogonalEdgeStyle;rounded=0;orthogonalLoop=1;jettySize=auto;html=1;exitX=0;exitY=1;exitDx=0;exitDy=0;entryX=1;entryY=1;entryDx=0;entryDy=0;" parent="1" edge="1">
          <mxGeometry relative="1" as="geometry">
            <mxPoint x="664" y="477" as="sourcePoint" />
            <mxPoint x="608" y="477" as="targetPoint" />
          </mxGeometry>
        </mxCell>
        <mxCell id="-CvL78i2ro01cgqQbluY-166" value="3μ&lt;sub&gt;1&lt;/sub&gt;" style="edgeLabel;html=1;align=center;verticalAlign=middle;resizable=0;points=[];" parent="-CvL78i2ro01cgqQbluY-165" vertex="1" connectable="0">
          <mxGeometry x="-0.0296" relative="1" as="geometry">
            <mxPoint as="offset" />
          </mxGeometry>
        </mxCell>
        <mxCell id="-CvL78i2ro01cgqQbluY-167" style="edgeStyle=orthogonalEdgeStyle;rounded=0;orthogonalLoop=1;jettySize=auto;html=1;exitX=1;exitY=0;exitDx=0;exitDy=0;entryX=0;entryY=0;entryDx=0;entryDy=0;strokeWidth=1;endArrow=classic;endFill=1;" parent="1" edge="1">
          <mxGeometry relative="1" as="geometry">
            <mxPoint x="700" y="463" as="sourcePoint" />
            <mxPoint x="756" y="463" as="targetPoint" />
          </mxGeometry>
        </mxCell>
        <mxCell id="-CvL78i2ro01cgqQbluY-168" value="λ&lt;sub&gt;1&lt;/sub&gt;" style="edgeLabel;html=1;align=center;verticalAlign=middle;resizable=0;points=[];" parent="-CvL78i2ro01cgqQbluY-167" vertex="1" connectable="0">
          <mxGeometry x="-0.045" relative="1" as="geometry">
            <mxPoint as="offset" />
          </mxGeometry>
        </mxCell>
        <mxCell id="-CvL78i2ro01cgqQbluY-169" style="edgeStyle=orthogonalEdgeStyle;rounded=0;orthogonalLoop=1;jettySize=auto;html=1;exitX=0;exitY=1;exitDx=0;exitDy=0;entryX=1;entryY=1;entryDx=0;entryDy=0;" parent="1" edge="1">
          <mxGeometry relative="1" as="geometry">
            <mxPoint x="756" y="477" as="sourcePoint" />
            <mxPoint x="700" y="477" as="targetPoint" />
          </mxGeometry>
        </mxCell>
        <mxCell id="-CvL78i2ro01cgqQbluY-170" value="4μ&lt;sub&gt;1&lt;/sub&gt;" style="edgeLabel;html=1;align=center;verticalAlign=middle;resizable=0;points=[];" parent="-CvL78i2ro01cgqQbluY-169" vertex="1" connectable="0">
          <mxGeometry x="-0.0296" relative="1" as="geometry">
            <mxPoint as="offset" />
          </mxGeometry>
        </mxCell>
        <mxCell id="-CvL78i2ro01cgqQbluY-171" style="edgeStyle=orthogonalEdgeStyle;rounded=0;orthogonalLoop=1;jettySize=auto;html=1;exitX=1;exitY=0;exitDx=0;exitDy=0;entryX=0;entryY=0;entryDx=0;entryDy=0;strokeWidth=1;endArrow=classic;endFill=1;" parent="1" edge="1">
          <mxGeometry relative="1" as="geometry">
            <mxPoint x="792" y="463" as="sourcePoint" />
            <mxPoint x="848" y="463" as="targetPoint" />
          </mxGeometry>
        </mxCell>
        <mxCell id="-CvL78i2ro01cgqQbluY-172" value="λ&lt;sub&gt;1&lt;/sub&gt;" style="edgeLabel;html=1;align=center;verticalAlign=middle;resizable=0;points=[];" parent="-CvL78i2ro01cgqQbluY-171" vertex="1" connectable="0">
          <mxGeometry x="-0.045" relative="1" as="geometry">
            <mxPoint as="offset" />
          </mxGeometry>
        </mxCell>
        <mxCell id="-CvL78i2ro01cgqQbluY-173" style="edgeStyle=orthogonalEdgeStyle;rounded=0;orthogonalLoop=1;jettySize=auto;html=1;exitX=0;exitY=1;exitDx=0;exitDy=0;entryX=1;entryY=1;entryDx=0;entryDy=0;" parent="1" edge="1">
          <mxGeometry relative="1" as="geometry">
            <mxPoint x="848" y="477" as="sourcePoint" />
            <mxPoint x="792" y="477" as="targetPoint" />
          </mxGeometry>
        </mxCell>
        <mxCell id="-CvL78i2ro01cgqQbluY-174" value="5μ&lt;sub&gt;1&lt;/sub&gt;" style="edgeLabel;html=1;align=center;verticalAlign=middle;resizable=0;points=[];" parent="-CvL78i2ro01cgqQbluY-173" vertex="1" connectable="0">
          <mxGeometry x="-0.0296" relative="1" as="geometry">
            <mxPoint as="offset" />
          </mxGeometry>
        </mxCell>
        <mxCell id="-CvL78i2ro01cgqQbluY-175" style="edgeStyle=orthogonalEdgeStyle;rounded=0;orthogonalLoop=1;jettySize=auto;html=1;exitX=1;exitY=0;exitDx=0;exitDy=0;entryX=0;entryY=0;entryDx=0;entryDy=0;strokeWidth=1;endArrow=classic;endFill=1;" parent="1" edge="1">
          <mxGeometry relative="1" as="geometry">
            <mxPoint x="390" y="523" as="sourcePoint" />
            <mxPoint x="334" y="523" as="targetPoint" />
          </mxGeometry>
        </mxCell>
        <mxCell id="-CvL78i2ro01cgqQbluY-176" value="λ&lt;sub&gt;3&lt;/sub&gt;" style="edgeLabel;html=1;align=center;verticalAlign=middle;resizable=0;points=[];" parent="-CvL78i2ro01cgqQbluY-175" vertex="1" connectable="0">
          <mxGeometry x="-0.045" relative="1" as="geometry">
            <mxPoint as="offset" />
          </mxGeometry>
        </mxCell>
        <mxCell id="-CvL78i2ro01cgqQbluY-177" style="edgeStyle=orthogonalEdgeStyle;rounded=0;orthogonalLoop=1;jettySize=auto;html=1;exitX=0;exitY=1;exitDx=0;exitDy=0;entryX=1;entryY=1;entryDx=0;entryDy=0;" parent="1" edge="1">
          <mxGeometry relative="1" as="geometry">
            <mxPoint x="334" y="537" as="sourcePoint" />
            <mxPoint x="390" y="537" as="targetPoint" />
          </mxGeometry>
        </mxCell>
        <mxCell id="-CvL78i2ro01cgqQbluY-178" value="μ&lt;sub&gt;3&lt;/sub&gt;" style="edgeLabel;html=1;align=center;verticalAlign=middle;resizable=0;points=[];" parent="-CvL78i2ro01cgqQbluY-177" vertex="1" connectable="0">
          <mxGeometry x="-0.0296" relative="1" as="geometry">
            <mxPoint as="offset" />
          </mxGeometry>
        </mxCell>
        <mxCell id="-CvL78i2ro01cgqQbluY-179" style="edgeStyle=orthogonalEdgeStyle;rounded=0;orthogonalLoop=1;jettySize=auto;html=1;exitX=1;exitY=0;exitDx=0;exitDy=0;entryX=0;entryY=0;entryDx=0;entryDy=0;strokeWidth=1;endArrow=classic;endFill=1;" parent="1" edge="1">
          <mxGeometry relative="1" as="geometry">
            <mxPoint x="426" y="523" as="sourcePoint" />
            <mxPoint x="482" y="523" as="targetPoint" />
          </mxGeometry>
        </mxCell>
        <mxCell id="-CvL78i2ro01cgqQbluY-180" value="λ&lt;sub&gt;1&lt;/sub&gt;" style="edgeLabel;html=1;align=center;verticalAlign=middle;resizable=0;points=[];" parent="-CvL78i2ro01cgqQbluY-179" vertex="1" connectable="0">
          <mxGeometry x="-0.045" relative="1" as="geometry">
            <mxPoint as="offset" />
          </mxGeometry>
        </mxCell>
        <mxCell id="-CvL78i2ro01cgqQbluY-181" style="edgeStyle=orthogonalEdgeStyle;rounded=0;orthogonalLoop=1;jettySize=auto;html=1;exitX=0;exitY=1;exitDx=0;exitDy=0;entryX=1;entryY=1;entryDx=0;entryDy=0;" parent="1" edge="1">
          <mxGeometry relative="1" as="geometry">
            <mxPoint x="482" y="537" as="sourcePoint" />
            <mxPoint x="426" y="537" as="targetPoint" />
          </mxGeometry>
        </mxCell>
        <mxCell id="-CvL78i2ro01cgqQbluY-182" value="μ&lt;sub&gt;1&lt;/sub&gt;" style="edgeLabel;html=1;align=center;verticalAlign=middle;resizable=0;points=[];" parent="-CvL78i2ro01cgqQbluY-181" vertex="1" connectable="0">
          <mxGeometry x="-0.0296" relative="1" as="geometry">
            <mxPoint as="offset" />
          </mxGeometry>
        </mxCell>
        <mxCell id="-CvL78i2ro01cgqQbluY-183" style="edgeStyle=orthogonalEdgeStyle;rounded=0;orthogonalLoop=1;jettySize=auto;html=1;exitX=1;exitY=0;exitDx=0;exitDy=0;entryX=0;entryY=0;entryDx=0;entryDy=0;strokeWidth=1;endArrow=classic;endFill=1;" parent="1" edge="1">
          <mxGeometry relative="1" as="geometry">
            <mxPoint x="517" y="523" as="sourcePoint" />
            <mxPoint x="573" y="523" as="targetPoint" />
          </mxGeometry>
        </mxCell>
        <mxCell id="-CvL78i2ro01cgqQbluY-184" value="λ&lt;sub&gt;1&lt;/sub&gt;" style="edgeLabel;html=1;align=center;verticalAlign=middle;resizable=0;points=[];" parent="-CvL78i2ro01cgqQbluY-183" vertex="1" connectable="0">
          <mxGeometry x="-0.045" relative="1" as="geometry">
            <mxPoint as="offset" />
          </mxGeometry>
        </mxCell>
        <mxCell id="-CvL78i2ro01cgqQbluY-185" style="edgeStyle=orthogonalEdgeStyle;rounded=0;orthogonalLoop=1;jettySize=auto;html=1;exitX=0;exitY=1;exitDx=0;exitDy=0;entryX=1;entryY=1;entryDx=0;entryDy=0;" parent="1" edge="1">
          <mxGeometry relative="1" as="geometry">
            <mxPoint x="573" y="537" as="sourcePoint" />
            <mxPoint x="517" y="537" as="targetPoint" />
          </mxGeometry>
        </mxCell>
        <mxCell id="-CvL78i2ro01cgqQbluY-186" value="2μ&lt;sub&gt;1&lt;/sub&gt;" style="edgeLabel;html=1;align=center;verticalAlign=middle;resizable=0;points=[];" parent="-CvL78i2ro01cgqQbluY-185" vertex="1" connectable="0">
          <mxGeometry x="-0.0296" relative="1" as="geometry">
            <mxPoint as="offset" />
          </mxGeometry>
        </mxCell>
        <mxCell id="-CvL78i2ro01cgqQbluY-187" style="edgeStyle=orthogonalEdgeStyle;rounded=0;orthogonalLoop=1;jettySize=auto;html=1;exitX=1;exitY=0;exitDx=0;exitDy=0;entryX=0;entryY=0;entryDx=0;entryDy=0;strokeWidth=1;endArrow=classic;endFill=1;" parent="1" edge="1">
          <mxGeometry relative="1" as="geometry">
            <mxPoint x="609" y="523" as="sourcePoint" />
            <mxPoint x="665" y="523" as="targetPoint" />
          </mxGeometry>
        </mxCell>
        <mxCell id="-CvL78i2ro01cgqQbluY-188" value="λ&lt;sub&gt;1&lt;/sub&gt;" style="edgeLabel;html=1;align=center;verticalAlign=middle;resizable=0;points=[];" parent="-CvL78i2ro01cgqQbluY-187" vertex="1" connectable="0">
          <mxGeometry x="-0.045" relative="1" as="geometry">
            <mxPoint as="offset" />
          </mxGeometry>
        </mxCell>
        <mxCell id="-CvL78i2ro01cgqQbluY-189" style="edgeStyle=orthogonalEdgeStyle;rounded=0;orthogonalLoop=1;jettySize=auto;html=1;exitX=0;exitY=1;exitDx=0;exitDy=0;entryX=1;entryY=1;entryDx=0;entryDy=0;" parent="1" edge="1">
          <mxGeometry relative="1" as="geometry">
            <mxPoint x="665" y="537" as="sourcePoint" />
            <mxPoint x="609" y="537" as="targetPoint" />
          </mxGeometry>
        </mxCell>
        <mxCell id="-CvL78i2ro01cgqQbluY-190" value="3μ&lt;sub&gt;1&lt;/sub&gt;" style="edgeLabel;html=1;align=center;verticalAlign=middle;resizable=0;points=[];" parent="-CvL78i2ro01cgqQbluY-189" vertex="1" connectable="0">
          <mxGeometry x="-0.0296" relative="1" as="geometry">
            <mxPoint as="offset" />
          </mxGeometry>
        </mxCell>
        <mxCell id="CXwU6oOGhNFT2xrUzm34-1" style="edgeStyle=orthogonalEdgeStyle;rounded=0;orthogonalLoop=1;jettySize=auto;html=1;exitX=1;exitY=0;exitDx=0;exitDy=0;entryX=0;entryY=0;entryDx=0;entryDy=0;strokeWidth=1;endArrow=classic;endFill=1;" parent="1" edge="1">
          <mxGeometry relative="1" as="geometry">
            <mxPoint x="426" y="583" as="sourcePoint" />
            <mxPoint x="482" y="583" as="targetPoint" />
          </mxGeometry>
        </mxCell>
        <mxCell id="CXwU6oOGhNFT2xrUzm34-2" value="λ&lt;sub&gt;1&lt;/sub&gt;" style="edgeLabel;html=1;align=center;verticalAlign=middle;resizable=0;points=[];" parent="CXwU6oOGhNFT2xrUzm34-1" vertex="1" connectable="0">
          <mxGeometry x="-0.045" relative="1" as="geometry">
            <mxPoint as="offset" />
          </mxGeometry>
        </mxCell>
        <mxCell id="CXwU6oOGhNFT2xrUzm34-3" style="edgeStyle=orthogonalEdgeStyle;rounded=0;orthogonalLoop=1;jettySize=auto;html=1;exitX=0;exitY=1;exitDx=0;exitDy=0;entryX=1;entryY=1;entryDx=0;entryDy=0;" parent="1" edge="1">
          <mxGeometry relative="1" as="geometry">
            <mxPoint x="482" y="597" as="sourcePoint" />
            <mxPoint x="426" y="597" as="targetPoint" />
          </mxGeometry>
        </mxCell>
        <mxCell id="CXwU6oOGhNFT2xrUzm34-4" value="μ&lt;sub&gt;1&lt;/sub&gt;" style="edgeLabel;html=1;align=center;verticalAlign=middle;resizable=0;points=[];" parent="CXwU6oOGhNFT2xrUzm34-3" vertex="1" connectable="0">
          <mxGeometry x="-0.0296" relative="1" as="geometry">
            <mxPoint as="offset" />
          </mxGeometry>
        </mxCell>
        <mxCell id="-CvL78i2ro01cgqQbluY-9" value="" style="group" parent="1" vertex="1" connectable="0">
          <mxGeometry x="281" y="330" width="60" height="30" as="geometry" />
        </mxCell>
        <mxCell id="-CvL78i2ro01cgqQbluY-3" value="2,0,1,0" style="ellipse;whiteSpace=wrap;html=1;" parent="-CvL78i2ro01cgqQbluY-9" vertex="1">
          <mxGeometry x="10" y="10" width="50" height="20" as="geometry" />
        </mxCell>
        <mxCell id="-CvL78i2ro01cgqQbluY-8" value="5" style="ellipse;whiteSpace=wrap;html=1;aspect=fixed;fillColor=default;strokeColor=default;fontColor=#6666FF;fillStyle=auto;gradientColor=none;labelBackgroundColor=none;labelBorderColor=none;fontStyle=1;shadow=0;spacing=2;" parent="-CvL78i2ro01cgqQbluY-9" vertex="1">
          <mxGeometry x="3" y="3" width="14" height="14" as="geometry" />
        </mxCell>
        <mxCell id="-CvL78i2ro01cgqQbluY-10" value="" style="group" parent="1" vertex="1" connectable="0">
          <mxGeometry x="281" y="390" width="60" height="30" as="geometry" />
        </mxCell>
        <mxCell id="-CvL78i2ro01cgqQbluY-11" value="1,0,1,0" style="ellipse;whiteSpace=wrap;html=1;" parent="-CvL78i2ro01cgqQbluY-10" vertex="1">
          <mxGeometry x="10" y="10" width="50" height="20" as="geometry" />
        </mxCell>
        <mxCell id="-CvL78i2ro01cgqQbluY-12" value="4" style="ellipse;whiteSpace=wrap;html=1;aspect=fixed;fillColor=default;strokeColor=default;fontColor=#6666FF;fillStyle=auto;gradientColor=none;labelBackgroundColor=none;labelBorderColor=none;fontStyle=1;shadow=0;spacing=2;" parent="-CvL78i2ro01cgqQbluY-10" vertex="1">
          <mxGeometry x="3" y="3" width="14" height="14" as="geometry" />
        </mxCell>
        <mxCell id="-CvL78i2ro01cgqQbluY-13" value="" style="group" parent="1" vertex="1" connectable="0">
          <mxGeometry x="281" y="450" width="60" height="30" as="geometry" />
        </mxCell>
        <mxCell id="-CvL78i2ro01cgqQbluY-14" value="0,0,1,0" style="ellipse;whiteSpace=wrap;html=1;" parent="-CvL78i2ro01cgqQbluY-13" vertex="1">
          <mxGeometry x="10" y="10" width="50" height="20" as="geometry" />
        </mxCell>
        <mxCell id="-CvL78i2ro01cgqQbluY-15" value="3" style="ellipse;whiteSpace=wrap;html=1;aspect=fixed;fillColor=default;strokeColor=default;fontColor=#6666FF;fillStyle=auto;gradientColor=none;labelBackgroundColor=none;labelBorderColor=none;fontStyle=1;shadow=0;spacing=2;" parent="-CvL78i2ro01cgqQbluY-13" vertex="1">
          <mxGeometry x="3" y="3" width="14" height="14" as="geometry" />
        </mxCell>
        <mxCell id="-CvL78i2ro01cgqQbluY-16" value="" style="group" parent="1" vertex="1" connectable="0">
          <mxGeometry x="281" y="510" width="60" height="30" as="geometry" />
        </mxCell>
        <mxCell id="-CvL78i2ro01cgqQbluY-17" value="0,1,1,0" style="ellipse;whiteSpace=wrap;html=1;" parent="-CvL78i2ro01cgqQbluY-16" vertex="1">
          <mxGeometry x="10" y="10" width="50" height="20" as="geometry" />
        </mxCell>
        <mxCell id="-CvL78i2ro01cgqQbluY-18" value="5" style="ellipse;whiteSpace=wrap;html=1;aspect=fixed;fillColor=default;strokeColor=default;fontColor=#6666FF;fillStyle=auto;gradientColor=none;labelBackgroundColor=none;labelBorderColor=none;fontStyle=1;shadow=0;spacing=2;" parent="-CvL78i2ro01cgqQbluY-16" vertex="1">
          <mxGeometry x="3" y="3" width="14" height="14" as="geometry" />
        </mxCell>
        <mxCell id="-CvL78i2ro01cgqQbluY-25" value="" style="group" parent="1" vertex="1" connectable="0">
          <mxGeometry x="373" y="450" width="60" height="30" as="geometry" />
        </mxCell>
        <mxCell id="-CvL78i2ro01cgqQbluY-26" value="0,0,0,0" style="ellipse;whiteSpace=wrap;html=1;" parent="-CvL78i2ro01cgqQbluY-25" vertex="1">
          <mxGeometry x="10" y="10" width="50" height="20" as="geometry" />
        </mxCell>
        <mxCell id="-CvL78i2ro01cgqQbluY-27" value="0" style="ellipse;whiteSpace=wrap;html=1;aspect=fixed;fillColor=default;strokeColor=default;fontColor=#6666FF;fillStyle=auto;gradientColor=none;labelBackgroundColor=none;labelBorderColor=none;fontStyle=1;shadow=0;spacing=2;" parent="-CvL78i2ro01cgqQbluY-25" vertex="1">
          <mxGeometry x="3" y="3" width="14" height="14" as="geometry" />
        </mxCell>
        <mxCell id="-CvL78i2ro01cgqQbluY-28" value="" style="group" parent="1" vertex="1" connectable="0">
          <mxGeometry x="373" y="390" width="60" height="30" as="geometry" />
        </mxCell>
        <mxCell id="-CvL78i2ro01cgqQbluY-29" value="0,0,0,1" style="ellipse;whiteSpace=wrap;html=1;" parent="-CvL78i2ro01cgqQbluY-28" vertex="1">
          <mxGeometry x="10" y="10" width="50" height="20" as="geometry" />
        </mxCell>
        <mxCell id="-CvL78i2ro01cgqQbluY-30" value="4" style="ellipse;aspect=fixed;fillColor=default;strokeColor=default;fontColor=#6666FF;fillStyle=auto;gradientColor=none;labelBackgroundColor=none;labelBorderColor=none;whiteSpace=wrap;html=1;fontStyle=1;shadow=0;spacing=2;verticalAlign=middle;" parent="-CvL78i2ro01cgqQbluY-28" vertex="1">
          <mxGeometry x="3" y="3" width="14" height="14" as="geometry" />
        </mxCell>
        <mxCell id="-CvL78i2ro01cgqQbluY-31" value="" style="group" parent="1" vertex="1" connectable="0">
          <mxGeometry x="464" y="390" width="60" height="30" as="geometry" />
        </mxCell>
        <mxCell id="-CvL78i2ro01cgqQbluY-32" value="1,0,0,1" style="ellipse;whiteSpace=wrap;html=1;" parent="-CvL78i2ro01cgqQbluY-31" vertex="1">
          <mxGeometry x="10" y="10" width="50" height="20" as="geometry" />
        </mxCell>
        <mxCell id="-CvL78i2ro01cgqQbluY-33" value="5" style="ellipse;whiteSpace=wrap;html=1;aspect=fixed;fillColor=default;strokeColor=default;fontColor=#6666FF;fillStyle=auto;gradientColor=none;labelBackgroundColor=none;labelBorderColor=none;fontStyle=1;shadow=0;spacing=2;" parent="-CvL78i2ro01cgqQbluY-31" vertex="1">
          <mxGeometry x="3" y="3" width="14" height="14" as="geometry" />
        </mxCell>
        <mxCell id="-CvL78i2ro01cgqQbluY-34" value="" style="group" parent="1" vertex="1" connectable="0">
          <mxGeometry x="464" y="450" width="60" height="30" as="geometry" />
        </mxCell>
        <mxCell id="-CvL78i2ro01cgqQbluY-35" value="1,0,0,0" style="ellipse;whiteSpace=wrap;html=1;" parent="-CvL78i2ro01cgqQbluY-34" vertex="1">
          <mxGeometry x="10" y="10" width="50" height="20" as="geometry" />
        </mxCell>
        <mxCell id="-CvL78i2ro01cgqQbluY-36" value="1" style="ellipse;whiteSpace=wrap;html=1;aspect=fixed;fillColor=default;strokeColor=default;fontColor=#6666FF;fillStyle=auto;gradientColor=none;labelBackgroundColor=none;labelBorderColor=none;fontStyle=1;shadow=0;spacing=2;" parent="-CvL78i2ro01cgqQbluY-34" vertex="1">
          <mxGeometry x="3" y="3" width="14" height="14" as="geometry" />
        </mxCell>
        <mxCell id="-CvL78i2ro01cgqQbluY-37" value="" style="group" parent="1" vertex="1" connectable="0">
          <mxGeometry x="556" y="450" width="60" height="30" as="geometry" />
        </mxCell>
        <mxCell id="-CvL78i2ro01cgqQbluY-38" value="2,0,0,0" style="ellipse;whiteSpace=wrap;html=1;" parent="-CvL78i2ro01cgqQbluY-37" vertex="1">
          <mxGeometry x="10" y="10" width="50" height="20" as="geometry" />
        </mxCell>
        <mxCell id="-CvL78i2ro01cgqQbluY-39" value="2" style="ellipse;whiteSpace=wrap;html=1;aspect=fixed;fillColor=default;strokeColor=default;fontColor=#6666FF;fillStyle=auto;gradientColor=none;labelBackgroundColor=none;labelBorderColor=none;fontStyle=1;shadow=0;spacing=2;" parent="-CvL78i2ro01cgqQbluY-37" vertex="1">
          <mxGeometry x="3" y="3" width="14" height="14" as="geometry" />
        </mxCell>
        <mxCell id="-CvL78i2ro01cgqQbluY-108" style="edgeStyle=orthogonalEdgeStyle;rounded=0;orthogonalLoop=1;jettySize=auto;html=1;exitX=1;exitY=1;exitDx=0;exitDy=0;entryX=1;entryY=0;entryDx=0;entryDy=0;" parent="-CvL78i2ro01cgqQbluY-37" edge="1">
          <mxGeometry relative="1" as="geometry">
            <mxPoint x="53" y="73" as="sourcePoint" />
            <mxPoint x="53" y="27" as="targetPoint" />
          </mxGeometry>
        </mxCell>
        <mxCell id="-CvL78i2ro01cgqQbluY-109" value="μ&lt;sub&gt;2&lt;/sub&gt;" style="edgeLabel;html=1;align=center;verticalAlign=middle;resizable=0;points=[];" parent="-CvL78i2ro01cgqQbluY-108" vertex="1" connectable="0">
          <mxGeometry x="-0.0296" relative="1" as="geometry">
            <mxPoint as="offset" />
          </mxGeometry>
        </mxCell>
        <mxCell id="-CvL78i2ro01cgqQbluY-110" style="edgeStyle=orthogonalEdgeStyle;rounded=0;orthogonalLoop=1;jettySize=auto;html=1;exitX=0;exitY=0;exitDx=0;exitDy=0;entryX=0;entryY=1;entryDx=0;entryDy=0;" parent="-CvL78i2ro01cgqQbluY-37" edge="1">
          <mxGeometry relative="1" as="geometry">
            <mxPoint x="17" y="27" as="sourcePoint" />
            <mxPoint x="17" y="73" as="targetPoint" />
          </mxGeometry>
        </mxCell>
        <mxCell id="-CvL78i2ro01cgqQbluY-111" value="λ&lt;sub&gt;2&lt;/sub&gt;" style="edgeLabel;html=1;align=center;verticalAlign=middle;resizable=0;points=[];" parent="-CvL78i2ro01cgqQbluY-110" vertex="1" connectable="0">
          <mxGeometry x="-0.045" relative="1" as="geometry">
            <mxPoint as="offset" />
          </mxGeometry>
        </mxCell>
        <mxCell id="-CvL78i2ro01cgqQbluY-40" value="" style="group" parent="1" vertex="1" connectable="0">
          <mxGeometry x="647" y="450" width="60" height="30" as="geometry" />
        </mxCell>
        <mxCell id="-CvL78i2ro01cgqQbluY-41" value="3,0,0,0" style="ellipse;whiteSpace=wrap;html=1;" parent="-CvL78i2ro01cgqQbluY-40" vertex="1">
          <mxGeometry x="10" y="10" width="50" height="20" as="geometry" />
        </mxCell>
        <mxCell id="-CvL78i2ro01cgqQbluY-42" value="3" style="ellipse;whiteSpace=wrap;html=1;aspect=fixed;fillColor=default;strokeColor=default;fontColor=#6666FF;fillStyle=auto;gradientColor=none;labelBackgroundColor=none;labelBorderColor=none;fontStyle=1;shadow=0;spacing=2;" parent="-CvL78i2ro01cgqQbluY-40" vertex="1">
          <mxGeometry x="3" y="3" width="14" height="14" as="geometry" />
        </mxCell>
        <mxCell id="-CvL78i2ro01cgqQbluY-112" style="edgeStyle=orthogonalEdgeStyle;rounded=0;orthogonalLoop=1;jettySize=auto;html=1;exitX=1;exitY=1;exitDx=0;exitDy=0;entryX=1;entryY=0;entryDx=0;entryDy=0;" parent="-CvL78i2ro01cgqQbluY-40" edge="1">
          <mxGeometry relative="1" as="geometry">
            <mxPoint x="53" y="73" as="sourcePoint" />
            <mxPoint x="53" y="27" as="targetPoint" />
          </mxGeometry>
        </mxCell>
        <mxCell id="-CvL78i2ro01cgqQbluY-113" value="μ&lt;sub&gt;2&lt;/sub&gt;" style="edgeLabel;html=1;align=center;verticalAlign=middle;resizable=0;points=[];" parent="-CvL78i2ro01cgqQbluY-112" vertex="1" connectable="0">
          <mxGeometry x="-0.0296" relative="1" as="geometry">
            <mxPoint as="offset" />
          </mxGeometry>
        </mxCell>
        <mxCell id="-CvL78i2ro01cgqQbluY-114" style="edgeStyle=orthogonalEdgeStyle;rounded=0;orthogonalLoop=1;jettySize=auto;html=1;exitX=0;exitY=0;exitDx=0;exitDy=0;entryX=0;entryY=1;entryDx=0;entryDy=0;" parent="-CvL78i2ro01cgqQbluY-40" edge="1">
          <mxGeometry relative="1" as="geometry">
            <mxPoint x="17" y="27" as="sourcePoint" />
            <mxPoint x="17" y="73" as="targetPoint" />
          </mxGeometry>
        </mxCell>
        <mxCell id="-CvL78i2ro01cgqQbluY-115" value="λ&lt;sub&gt;2&lt;/sub&gt;" style="edgeLabel;html=1;align=center;verticalAlign=middle;resizable=0;points=[];" parent="-CvL78i2ro01cgqQbluY-114" vertex="1" connectable="0">
          <mxGeometry x="-0.045" relative="1" as="geometry">
            <mxPoint as="offset" />
          </mxGeometry>
        </mxCell>
        <mxCell id="-CvL78i2ro01cgqQbluY-43" value="" style="group" parent="1" vertex="1" connectable="0">
          <mxGeometry x="739" y="450" width="60" height="30" as="geometry" />
        </mxCell>
        <mxCell id="-CvL78i2ro01cgqQbluY-44" value="4,0,0,0" style="ellipse;whiteSpace=wrap;html=1;" parent="-CvL78i2ro01cgqQbluY-43" vertex="1">
          <mxGeometry x="10" y="10" width="50" height="20" as="geometry" />
        </mxCell>
        <mxCell id="-CvL78i2ro01cgqQbluY-45" value="4" style="ellipse;whiteSpace=wrap;html=1;aspect=fixed;fillColor=default;strokeColor=default;fontColor=#6666FF;fillStyle=auto;gradientColor=none;labelBackgroundColor=none;labelBorderColor=none;fontStyle=1;shadow=0;spacing=2;" parent="-CvL78i2ro01cgqQbluY-43" vertex="1">
          <mxGeometry x="3" y="3" width="14" height="14" as="geometry" />
        </mxCell>
        <mxCell id="-CvL78i2ro01cgqQbluY-46" value="" style="group" parent="1" vertex="1" connectable="0">
          <mxGeometry x="830" y="450" width="60" height="30" as="geometry" />
        </mxCell>
        <mxCell id="-CvL78i2ro01cgqQbluY-47" value="5,0,0,0" style="ellipse;whiteSpace=wrap;html=1;" parent="-CvL78i2ro01cgqQbluY-46" vertex="1">
          <mxGeometry x="10" y="10" width="50" height="20" as="geometry" />
        </mxCell>
        <mxCell id="-CvL78i2ro01cgqQbluY-48" value="5" style="ellipse;whiteSpace=wrap;html=1;aspect=fixed;fillColor=default;strokeColor=default;fontColor=#6666FF;fillStyle=auto;gradientColor=none;labelBackgroundColor=none;labelBorderColor=none;fontStyle=1;shadow=0;spacing=2;" parent="-CvL78i2ro01cgqQbluY-46" vertex="1">
          <mxGeometry x="3" y="3" width="14" height="14" as="geometry" />
        </mxCell>
        <mxCell id="-CvL78i2ro01cgqQbluY-49" value="" style="group" parent="1" vertex="1" connectable="0">
          <mxGeometry x="373" y="510" width="60" height="30" as="geometry" />
        </mxCell>
        <mxCell id="-CvL78i2ro01cgqQbluY-50" value="0,1,0,0" style="ellipse;whiteSpace=wrap;html=1;" parent="-CvL78i2ro01cgqQbluY-49" vertex="1">
          <mxGeometry x="10" y="10" width="50" height="20" as="geometry" />
        </mxCell>
        <mxCell id="-CvL78i2ro01cgqQbluY-51" value="2" style="ellipse;whiteSpace=wrap;html=1;aspect=fixed;fillColor=default;strokeColor=default;fontColor=#6666FF;fillStyle=auto;gradientColor=none;labelBackgroundColor=none;labelBorderColor=none;fontStyle=1;shadow=0;spacing=2;" parent="-CvL78i2ro01cgqQbluY-49" vertex="1">
          <mxGeometry x="3" y="3" width="14" height="14" as="geometry" />
        </mxCell>
        <mxCell id="-CvL78i2ro01cgqQbluY-116" style="edgeStyle=orthogonalEdgeStyle;rounded=0;orthogonalLoop=1;jettySize=auto;html=1;exitX=1;exitY=1;exitDx=0;exitDy=0;entryX=1;entryY=0;entryDx=0;entryDy=0;" parent="-CvL78i2ro01cgqQbluY-49" edge="1">
          <mxGeometry relative="1" as="geometry">
            <mxPoint x="52.70999999999998" y="73" as="sourcePoint" />
            <mxPoint x="52.70999999999998" y="27" as="targetPoint" />
          </mxGeometry>
        </mxCell>
        <mxCell id="-CvL78i2ro01cgqQbluY-117" value="2μ&lt;sub&gt;2&lt;/sub&gt;" style="edgeLabel;html=1;align=center;verticalAlign=middle;resizable=0;points=[];" parent="-CvL78i2ro01cgqQbluY-116" vertex="1" connectable="0">
          <mxGeometry x="-0.0296" relative="1" as="geometry">
            <mxPoint as="offset" />
          </mxGeometry>
        </mxCell>
        <mxCell id="-CvL78i2ro01cgqQbluY-118" style="edgeStyle=orthogonalEdgeStyle;rounded=0;orthogonalLoop=1;jettySize=auto;html=1;exitX=0;exitY=0;exitDx=0;exitDy=0;entryX=0;entryY=1;entryDx=0;entryDy=0;" parent="-CvL78i2ro01cgqQbluY-49" edge="1">
          <mxGeometry relative="1" as="geometry">
            <mxPoint x="16.70999999999998" y="27" as="sourcePoint" />
            <mxPoint x="16.70999999999998" y="73" as="targetPoint" />
          </mxGeometry>
        </mxCell>
        <mxCell id="-CvL78i2ro01cgqQbluY-119" value="λ&lt;sub&gt;2&lt;/sub&gt;" style="edgeLabel;html=1;align=center;verticalAlign=middle;resizable=0;points=[];" parent="-CvL78i2ro01cgqQbluY-118" vertex="1" connectable="0">
          <mxGeometry x="-0.045" relative="1" as="geometry">
            <mxPoint as="offset" />
          </mxGeometry>
        </mxCell>
        <mxCell id="-CvL78i2ro01cgqQbluY-52" value="" style="group" parent="1" vertex="1" connectable="0">
          <mxGeometry x="373" y="570" width="60" height="30" as="geometry" />
        </mxCell>
        <mxCell id="-CvL78i2ro01cgqQbluY-53" value="0,2,0,0" style="ellipse;whiteSpace=wrap;html=1;" parent="-CvL78i2ro01cgqQbluY-52" vertex="1">
          <mxGeometry x="10" y="10" width="50" height="20" as="geometry" />
        </mxCell>
        <mxCell id="-CvL78i2ro01cgqQbluY-54" value="4" style="ellipse;whiteSpace=wrap;html=1;aspect=fixed;fillColor=default;strokeColor=default;fontColor=#6666FF;fillStyle=auto;gradientColor=none;labelBackgroundColor=none;labelBorderColor=none;fontStyle=1;shadow=0;spacing=2;" parent="-CvL78i2ro01cgqQbluY-52" vertex="1">
          <mxGeometry x="3" y="3" width="14" height="14" as="geometry" />
        </mxCell>
        <mxCell id="-CvL78i2ro01cgqQbluY-55" value="" style="group" parent="1" vertex="1" connectable="0">
          <mxGeometry x="464" y="510" width="60" height="30" as="geometry" />
        </mxCell>
        <mxCell id="-CvL78i2ro01cgqQbluY-56" value="1,1,0,0" style="ellipse;whiteSpace=wrap;html=1;" parent="-CvL78i2ro01cgqQbluY-55" vertex="1">
          <mxGeometry x="10" y="10" width="50" height="20" as="geometry" />
        </mxCell>
        <mxCell id="-CvL78i2ro01cgqQbluY-57" value="3" style="ellipse;whiteSpace=wrap;html=1;aspect=fixed;fillColor=default;strokeColor=default;fontColor=#6666FF;fillStyle=auto;gradientColor=none;labelBackgroundColor=none;labelBorderColor=none;fontStyle=1;shadow=0;spacing=2;" parent="-CvL78i2ro01cgqQbluY-55" vertex="1">
          <mxGeometry x="3" y="3" width="14" height="14" as="geometry" />
        </mxCell>
        <mxCell id="-CvL78i2ro01cgqQbluY-58" value="" style="group;verticalAlign=middle;fontColor=#6666FF;fillStyle=dashed;labelBackgroundColor=none;labelBorderColor=none;fontStyle=1;shadow=0;spacing=2;" parent="1" vertex="1" connectable="0">
          <mxGeometry x="556" y="510" width="60" height="30" as="geometry" />
        </mxCell>
        <mxCell id="-CvL78i2ro01cgqQbluY-59" value="2,1,0,0" style="ellipse;whiteSpace=wrap;html=1;" parent="-CvL78i2ro01cgqQbluY-58" vertex="1">
          <mxGeometry x="10" y="10" width="50" height="20" as="geometry" />
        </mxCell>
        <mxCell id="-CvL78i2ro01cgqQbluY-60" value="4" style="ellipse;whiteSpace=wrap;html=1;aspect=fixed;fillColor=default;strokeColor=default;fontColor=#6666FF;fillStyle=auto;gradientColor=none;labelBackgroundColor=none;labelBorderColor=none;fontStyle=1;shadow=0;spacing=2;" parent="-CvL78i2ro01cgqQbluY-58" vertex="1">
          <mxGeometry x="3" y="3" width="14" height="14" as="geometry" />
        </mxCell>
        <mxCell id="-CvL78i2ro01cgqQbluY-61" value="" style="group" parent="1" vertex="1" connectable="0">
          <mxGeometry x="647" y="510" width="60" height="30" as="geometry" />
        </mxCell>
        <mxCell id="-CvL78i2ro01cgqQbluY-62" value="3,1,0,0" style="ellipse;whiteSpace=wrap;html=1;" parent="-CvL78i2ro01cgqQbluY-61" vertex="1">
          <mxGeometry x="10" y="10" width="50" height="20" as="geometry" />
        </mxCell>
        <mxCell id="-CvL78i2ro01cgqQbluY-63" value="5" style="ellipse;whiteSpace=wrap;html=1;aspect=fixed;fillColor=default;strokeColor=default;fontColor=#6666FF;fillStyle=auto;gradientColor=none;labelBackgroundColor=none;labelBorderColor=none;fontStyle=1;shadow=0;spacing=2;" parent="-CvL78i2ro01cgqQbluY-61" vertex="1">
          <mxGeometry x="3" y="3" width="14" height="14" as="geometry" />
        </mxCell>
        <mxCell id="-CvL78i2ro01cgqQbluY-64" value="" style="group" parent="1" vertex="1" connectable="0">
          <mxGeometry x="464" y="570" width="60" height="30" as="geometry" />
        </mxCell>
        <mxCell id="-CvL78i2ro01cgqQbluY-65" value="1,2,0,0" style="ellipse;whiteSpace=wrap;html=1;" parent="-CvL78i2ro01cgqQbluY-64" vertex="1">
          <mxGeometry x="10" y="10" width="50" height="20" as="geometry" />
        </mxCell>
        <mxCell id="-CvL78i2ro01cgqQbluY-66" value="5" style="ellipse;whiteSpace=wrap;html=1;aspect=fixed;fillColor=default;strokeColor=default;fontColor=#6666FF;fillStyle=auto;gradientColor=none;labelBackgroundColor=none;labelBorderColor=none;fontStyle=1;shadow=0;spacing=2;" parent="-CvL78i2ro01cgqQbluY-64" vertex="1">
          <mxGeometry x="3" y="3" width="14" height="14" as="geometry" />
        </mxCell>
        <mxCell id="-CvL78i2ro01cgqQbluY-92" style="edgeStyle=orthogonalEdgeStyle;rounded=0;orthogonalLoop=1;jettySize=auto;html=1;exitX=1;exitY=0;exitDx=0;exitDy=0;entryX=1;entryY=1;entryDx=0;entryDy=0;" parent="1" source="-CvL78i2ro01cgqQbluY-17" target="-CvL78i2ro01cgqQbluY-14" edge="1">
          <mxGeometry relative="1" as="geometry">
            <mxPoint x="334" y="525.93" as="sourcePoint" />
            <mxPoint x="334" y="479.93" as="targetPoint" />
          </mxGeometry>
        </mxCell>
        <mxCell id="-CvL78i2ro01cgqQbluY-93" value="μ&lt;sub&gt;2&lt;/sub&gt;" style="edgeLabel;html=1;align=center;verticalAlign=middle;resizable=0;points=[];" parent="-CvL78i2ro01cgqQbluY-92" vertex="1" connectable="0">
          <mxGeometry x="-0.0296" relative="1" as="geometry">
            <mxPoint as="offset" />
          </mxGeometry>
        </mxCell>
        <mxCell id="CXwU6oOGhNFT2xrUzm34-11" style="rounded=0;orthogonalLoop=1;jettySize=auto;html=1;exitX=0;exitY=0;exitDx=0;exitDy=0;entryX=0;entryY=0;entryDx=0;entryDy=0;strokeWidth=1;endArrow=classic;endFill=1;edgeStyle=isometricEdgeStyle;" parent="1" source="-CvL78i2ro01cgqQbluY-35" target="-CvL78i2ro01cgqQbluY-11" edge="1">
          <mxGeometry relative="1" as="geometry">
            <mxPoint x="631.81" y="490.11" as="sourcePoint" />
            <mxPoint x="356.81" y="370.11" as="targetPoint" />
            <Array as="points">
              <mxPoint x="540" y="400" />
            </Array>
          </mxGeometry>
        </mxCell>
        <mxCell id="CXwU6oOGhNFT2xrUzm34-12" value="λ&lt;sub&gt;3&lt;/sub&gt;" style="edgeLabel;html=1;align=center;verticalAlign=middle;resizable=0;points=[];" parent="CXwU6oOGhNFT2xrUzm34-11" vertex="1" connectable="0">
          <mxGeometry x="-0.045" relative="1" as="geometry">
            <mxPoint x="33" y="23" as="offset" />
          </mxGeometry>
        </mxCell>
      </root>
    </mxGraphModel>
  </diagram>
</mxfile>
